<?xml version="1.0" encoding="utf-8"?>
<!-- Generator: Adobe Illustrator 26.5.0, SVG Export Plug-In . SVG Version: 6.00 Build 0)  -->
<svg version="1.1" id="Layer_1" xmlns="http://www.w3.org/2000/svg" xmlns:xlink="http://www.w3.org/1999/xlink" x="0px" y="0px"
	 viewBox="0 0 1080 540" style="enable-background:new 0 0 1080 540;" xml:space="preserve">
<style type="text/css">
	.st0{fill:#FFFFFF;}
</style>
<g>
	<g>
		
			<animateTransform  accumulate="none" additive="replace" attributeName="transform" attributeType="xml" calcMode="discrete" dur="1s" fill="remove" repeatCount="indefinite" restart="always" type="translate" values="0,10; 0,0;">
			</animateTransform>
		<path class="st0" d="M937.29,72.78c-1-0.5-2.2-0.2-2.7,0.8c-1.5,2.7-3,5.3-4.6,8c0-12.6-0.1-25.3-0.4-37.8c0-1.1-0.9-2-2.1-2
			c-1.1,0-2,0.9-2,2.1c0.3,12.3,0.4,24.8,0.4,37.2c-2.5-2.2-5.3-4.1-8.3-5.6c-1-0.5-2.2-0.1-2.7,0.9s-0.1,2.2,0.9,2.7
			c4.5,2.2,8.5,5.5,11.6,9.4c0.1,0.2,0.3,0.3,0.5,0.4c0.4,0.2,0.8,0.3,1.2,0.3c0.7,0,1.2-0.4,1.6-0.9c2.6-4.1,5.1-8.4,7.4-12.6
			C938.59,74.58,938.29,73.28,937.29,72.78z"/>
	</g>
	<g>
		
			<animateTransform  accumulate="none" additive="replace" attributeName="transform" attributeType="xml" calcMode="discrete" dur="1s" fill="remove" repeatCount="indefinite" restart="always" type="translate" values="0,0; 0,10;">
			</animateTransform>
		<path class="st0" d="M977.39,76.78c-0.9-0.7-2.1-0.6-2.8,0.3l-9.2,11.1c1.4-7.2,1.7-14.5,2-21.6l2-44.4c0.1-1.1-0.8-2.1-1.9-2.1
			c-1.1,0-2.1,0.8-2.1,1.9l-2,44.4c-0.4,8.2-0.8,16.7-2.8,24.8c-3.2-4.8-6.1-9.9-8.5-15.2c-0.5-1-1.7-1.5-2.7-1s-1.5,1.7-1,2.7
			c2.9,6.5,6.5,12.7,10.7,18.5c-0.2,0.8,0.1,1.7,0.9,2.2c0.1,0.1,0.3,0.1,0.4,0.2c1,0.4,2.1-0.2,2.5-1.1l0.1-0.1l14.6-17.7
			C978.39,78.78,978.19,77.48,977.39,76.78z"/>
	</g>
	<g>
		
			<animateTransform  accumulate="none" additive="replace" attributeName="transform" attributeType="xml" calcMode="discrete" dur="1s" fill="remove" repeatCount="indefinite" restart="always" type="translate" values="-10,10; 0,0;">
			</animateTransform>
		<path class="st0" d="M1031.79,65.58c-0.8-0.8-2.1-0.8-2.9,0l-41.5,41.6c0.4-3.8,0.3-7.7-0.2-11.5c-0.2-1.1-1.2-1.9-2.3-1.7
			c-1.1,0.2-1.9,1.2-1.7,2.3c0.8,5.5,0.5,11.3-0.8,16.7c-0.1,0.4-0.4,1.5,0.3,2.5c0.1,0.2,0.4,0.5,0.8,0.7c0.6,0.4,1.4,0.6,2.7,0.2
			l17.1-4.8c1.1-0.3,1.7-1.4,1.4-2.5s-1.4-1.7-2.5-1.4l-13.3,3.7l42.9-43.1C1032.49,67.68,1032.49,66.38,1031.79,65.58z"/>
	</g>
	<g>
		<path class="st0" d="M1063.89,117.08c-0.3-1.1-1.3-1.8-2.4-1.5c-16.2,3.8-32.5,8-48.5,12.4c-0.2,0.1-0.4,0.2-0.6,0.3
			c1.3-3.6,3-6.9,5.2-10c0.7-0.9,0.5-2.2-0.4-2.8c-0.9-0.6-2.2-0.5-2.8,0.4c-2.9,4-5.1,8.4-6.5,13.2c-0.3,0.9,0.1,1.8,0.9,2.3
			c4.1,2.6,8.1,5.2,12.1,7.9l0,0c0.9,0.6,2.2,0.3,2.8-0.6c0.6-0.9,0.4-2.2-0.6-2.8c-2.3-1.5-4.7-3.1-7-4.6
			c15.3-4.2,30.9-8.2,46.4-11.8C1063.49,119.28,1064.19,118.18,1063.89,117.08z"/>
		
			<animateTransform  accumulate="none" additive="replace" attributeName="transform" attributeType="xml" calcMode="discrete" dur="1s" fill="remove" repeatCount="indefinite" restart="always" type="translate" values="0,0; -15,10;">
			</animateTransform>
	</g>
</g>
</svg>
